<?xml version="1.0" standalone="no"?><!DOCTYPE svg PUBLIC "-//W3C//DTD SVG 1.1//EN" "http://www.w3.org/Graphics/SVG/1.1/DTD/svg11.dtd"><svg width="32" height="32" viewBox="0 0 32 32" version="1.1" xmlns="http://www.w3.org/2000/svg" xmlns:xlink="http://www.w3.org/1999/xlink"><defs><style type="text/css"><![CDATA[
@font-face { font-family: ifont; src: url(http://at.alicdn.com/t/font_1442373896_4754455.eot?#iefix) format(embedded-opentype), url(http://at.alicdn.com/t/font_1442373896_4754455.woff) format(woff), url(http://at.alicdn.com/t/font_1442373896_4754455.ttf) format(truetype), url(http://at.alicdn.com/t/font_1442373896_4754455.svg#ifont) format(svg); }

]]></style></defs><g class="transform-group"><g transform="scale(0.03125, 0.03125)"><path d="M44.373333 566.613333c-6.826667 10.24-10.24 20.48-10.24 34.133333l0 98.986667c0 75.093333 136.533333 136.533333 307.2 136.533333l0-163.84C197.973333 672.426667 75.093333 628.053333 44.373333 566.613333zM344.746667 238.933333c167.253333 0 300.373333-44.373333 300.373333-102.4 0-58.026667-133.12-102.4-300.373333-102.4C177.493333 34.133333 40.96 81.92 40.96 136.533333 40.96 194.56 177.493333 238.933333 344.746667 238.933333zM44.373333 365.226667C37.546667 375.466667 34.133333 389.12 34.133333 399.36l0 98.986667c0 75.093333 136.533333 136.533333 307.2 136.533333l0-163.84C197.973333 471.04 75.093333 426.666667 44.373333 365.226667zM983.04 529.066667c-6.826667 54.613333-136.533333 98.986667-300.373333 98.986667-163.84 0-293.546667-44.373333-300.373333-98.986667-6.826667 10.24-6.826667 20.48-6.826667 30.72l0 98.986667c0 75.093333 139.946667 136.533333 310.613333 136.533333 170.666667 0 310.613333-61.44 310.613333-136.533333l0-98.986667C989.866667 549.546667 986.453333 539.306667 983.04 529.066667zM679.253333 826.026667c-143.36 0-266.24-44.373333-300.373333-102.4-6.826667 10.24-10.24 20.48-10.24 34.133333L368.64 853.333333c0 75.093333 139.946667 136.533333 310.613333 136.533333 170.666667 0 310.613333-61.44 310.613333-136.533333l0-98.986667c0-10.24-3.413333-20.48-10.24-34.133333C948.906667 781.653333 826.026667 826.026667 679.253333 826.026667zM621.226667 358.4c20.48-17.066667 30.72-37.546667 30.72-58.026667L651.946667 204.8c0-10.24-3.413333-20.48-6.826667-30.72-6.826667 54.613333-136.533333 98.986667-300.373333 98.986667C180.906667 269.653333 47.786667 228.693333 40.96 170.666667 37.546667 180.906667 34.133333 191.146667 34.133333 204.8l0 98.986667c0 75.093333 139.946667 136.533333 310.613333 136.533333 6.826667 0 10.24 0 17.066667 0C389.12 395.946667 494.933333 365.226667 621.226667 358.4zM378.88 494.933333c0 58.026667 133.12 102.4 300.373333 102.4 167.253333 0 300.373333-44.373333 300.373333-102.4 0-58.026667-133.12-102.4-300.373333-102.4C515.413333 392.533333 378.88 436.906667 378.88 494.933333z" fill="#007fdb"></path></g></g></svg>